# xmcd
#
# Track frame offsets:
# 150
# 20370
# 40507
# 59030
# 84935
# 102242
# 118165
# 133602
# 156795
# 178009
# 197142
# 215282
#
# Disc length: 3114 seconds
#
#
# Revision: 0
# Processed by: cddbd v1.5.1PL2 Copyright (c) Steve Scherf et al.
# Submitted via: FreeRIP 2.945 
#
DISCID=9f0c280c
DTITLE=Os Pelegrinos - Gesto de Amor
DYEAR=2000
DGENRE=Gospel
TTITLE0=01 Dois mil anos
TTITLE1=02 te amo
TTITLE2=03 Dia de festa
TTITLE3=04 Quando dobro meu joelho
TTITLE4=05 tudo pra mim
TTITLE5=06 cowboy de cristo
TTITLE6=07 Semente do amor
TTITLE7=08 Vem ca
TTITLE8=09 Leão Crente
TTITLE9=10 Gesto de Amor
TTITLE10=11 Igreja de fogo
TTITLE11=12 Mono querido
EXTD=iu
EXTT0=
EXTT1=
EXTT2=
EXTT3=
EXTT4=
EXTT5=
EXTT6=
EXTT7=
EXTT8=
EXTT9=
EXTT10=
EXTT11=
PLAYORDER=
